<?xml version="1.0" standalone="no"?>
<!DOCTYPE svg PUBLIC "-//W3C//DTD SVG 20010904//EN"
 "http://www.w3.org/TR/2001/REC-SVG-20010904/DTD/svg10.dtd">
<svg version="1.0" xmlns="http://www.w3.org/2000/svg"
 width="1254.000000pt" height="1254.000000pt" viewBox="0 0 1254.000000 1254.000000"
 preserveAspectRatio="xMidYMid meet">

<g transform="translate(0.000000,1254.000000) scale(0.100000,-0.100000)"
fill="#000000" stroke="none">
<path d="M6665 10940 c1555 -4 1766 -6 1000 -9 -533 -2 -954 -7 -935 -11 30
-6 32 -8 10 -10 -14 -2 -50 -5 -80 -6 -79 -5 -90 -6 -90 -16 0 -4 -7 -8 -16
-8 -8 0 -13 4 -10 8 4 7 -27 8 -44 2 -14 -6 -48 -4 -68 2 -16 6 -21 5 -16 -4
5 -7 3 -8 -5 -4 -15 10 -101 13 -101 4 0 -3 -36 -6 -80 -6 -51 0 -80 4 -80 11
0 6 -7 2 -15 -9 -9 -12 -14 -14 -15 -5 0 9 -6 11 -17 6 -10 -4 -25 -7 -33 -7
-8 0 -32 -4 -53 -10 -22 -5 -44 -5 -50 -1 -7 5 -23 7 -37 5 -14 -2 -73 -6
-132 -9 -93 -4 -108 -2 -108 11 0 9 -5 16 -11 16 -6 0 -9 -6 -6 -13 4 -10 -14
-14 -80 -15 -47 -2 -90 -5 -96 -9 -6 -3 -62 -8 -126 -10 -216 -7 -236 -8 -249
-17 -7 -4 -19 -3 -26 3 -10 9 -17 7 -27 -6 -11 -15 -11 -16 1 -6 11 10 18 7
37 -15 12 -15 23 -31 23 -37 0 -5 -5 -3 -10 5 -6 10 -21 14 -46 11 -22 -1 -34
1 -30 7 3 5 -1 12 -9 16 -8 3 -17 0 -21 -6 -4 -7 -3 -8 4 -4 7 4 12 2 12 -3 0
-15 -27 -14 -33 2 -4 10 -6 10 -6 0 -1 -7 -8 -13 -17 -13 -9 0 -12 -5 -8 -12
5 -9 2 -8 -9 1 -33 26 -28 3 5 -28 18 -17 27 -31 21 -31 -7 0 -13 -9 -13 -20
0 -11 6 -20 13 -20 8 0 14 -7 14 -15 0 -20 -5 -19 -29 8 -11 12 -17 17 -14 11
3 -6 -3 -19 -14 -29 -15 -13 -17 -21 -9 -31 8 -9 7 -18 -1 -31 -10 -16 -11
-16 -6 0 3 9 1 17 -4 17 -6 0 -10 -6 -10 -12 0 -7 -9 0 -20 17 -17 26 -20 27
-26 11 -5 -12 -1 -22 9 -28 19 -10 23 -28 6 -28 -5 0 -8 4 -5 8 3 5 -1 9 -9 9
-10 0 -11 -5 -6 -15 6 -10 4 -21 -6 -30 -12 -12 -17 -12 -34 4 -18 16 -19 17
-13 0 4 -11 0 -22 -11 -30 -10 -7 -16 -19 -13 -27 5 -15 -14 -39 -31 -39 -5 0
-13 9 -16 20 -7 21 -25 28 -25 10 0 -5 -5 -10 -11 -10 -5 0 -7 5 -3 12 4 7 3
8 -4 4 -15 -9 -5 -36 24 -64 26 -24 23 -62 -3 -41 -7 7 -12 17 -10 22 5 15
-32 49 -46 43 -9 -3 -8 -5 1 -5 7 -1 11 -5 8 -10 -4 -5 -2 -21 4 -35 6 -17 6
-27 -2 -32 -7 -5 -5 -12 7 -21 11 -7 14 -13 8 -13 -7 0 -15 5 -19 11 -3 6 -17
8 -30 5 -15 -4 -26 -1 -32 10 -6 11 -16 15 -26 11 -10 -4 -14 -12 -11 -18 4
-6 13 -8 21 -5 7 3 16 1 19 -4 4 -6 2 -10 -4 -10 -5 0 -11 -8 -13 -17 -3 -15
-7 -14 -28 10 -17 20 -26 24 -32 15 -6 -10 -8 -10 -8 -1 0 6 5 15 10 18 6 3
10 11 10 17 0 14 -28 -9 -42 -35 -7 -14 -7 -17 1 -13 6 4 11 2 11 -3 0 -6 -7
-11 -15 -11 -8 0 -15 4 -15 9 0 5 -6 11 -12 14 -9 3 -13 -8 -14 -34 -1 -22 3
-39 8 -39 5 0 6 4 3 10 -4 6 6 8 25 6 23 -3 30 0 26 10 -3 8 -1 14 4 14 6 0
10 -5 10 -11 0 -8 5 -7 15 1 9 7 18 10 22 6 3 -3 1 -6 -6 -6 -9 0 -11 -8 -8
-21 4 -17 3 -19 -6 -10 -14 14 -30 15 -22 1 3 -5 1 -10 -4 -10 -6 0 -11 -4
-11 -9 0 -5 8 -8 18 -6 9 1 11 0 4 -2 -7 -3 -10 -10 -6 -16 3 -7 -4 -1 -15 12
-17 19 -24 21 -36 11 -8 -6 -20 -10 -27 -7 -8 3 -5 6 6 6 19 1 19 1 1 14 -10
8 -15 19 -11 25 4 7 2 12 -3 12 -6 0 -11 -5 -11 -12 0 -6 -3 -8 -6 -5 -4 4 -1
13 6 22 9 11 9 15 1 15 -15 0 -41 -25 -41 -39 0 -6 -4 -11 -10 -11 -11 0 -9
-52 3 -61 5 -3 2 -9 -6 -12 -16 -6 -60 25 -52 37 3 3 0 2 -7 -4 -12 -10 -19
-49 -9 -48 30 3 42 -4 41 -24 -3 -37 -1 -50 10 -43 5 3 8 11 6 18 -1 7 -1 8 2
4 2 -5 13 -1 23 9 10 9 19 13 19 8 0 -14 -49 -48 -72 -49 -11 -1 -24 -8 -29
-16 -7 -11 -12 -12 -29 -1 -30 18 -36 15 -11 -7 15 -13 18 -20 9 -23 -10 -4
-10 -8 -1 -19 9 -12 6 -14 -18 -15 -26 -2 -29 1 -23 20 8 25 1 20 -16 -13 -8
-15 -8 -21 -1 -17 20 13 12 -5 -11 -25 -21 -17 -16 -24 14 -21 3 1 9 -6 12
-14 4 -12 2 -15 -9 -10 -8 3 -15 0 -15 -6 0 -6 -10 -3 -22 8 -19 16 -20 16 -9
1 8 -9 11 -20 7 -24 -3 -4 -13 2 -21 13 -15 19 -15 19 -13 -1 2 -11 8 -23 13
-28 6 -4 -4 -6 -21 -5 -26 2 -30 5 -26 23 5 19 4 19 -15 -2 -21 -24 -43 -33
-24 -10 6 8 7 17 3 21 -4 4 -2 7 3 6 22 -5 53 12 48 26 -3 8 -9 14 -15 14 -5
0 -6 -4 -3 -10 3 -5 -1 -10 -9 -10 -8 0 -18 5 -21 10 -5 8 -12 7 -23 -2 -14
-10 -15 -10 -4 2 14 16 16 30 4 30 -5 0 -13 -10 -19 -22 -8 -19 -10 -20 -16
-4 -4 9 -3 15 2 12 10 -7 23 19 14 28 -3 3 -12 -2 -20 -10 -8 -8 -18 -12 -22
-10 -4 3 -8 -1 -8 -8 0 -8 19 -26 41 -41 35 -22 37 -26 16 -23 -14 2 -37 15
-53 31 -37 37 -54 35 -19 -3 19 -19 29 -41 30 -62 0 -18 6 -34 11 -36 7 -2 5
-9 -3 -18 -19 -18 -27 -18 -20 0 4 11 0 13 -15 9 -13 -3 -18 -10 -14 -21 4
-10 2 -13 -5 -8 -10 6 -26 -10 -27 -26 0 -17 -13 -16 -29 1 -18 20 -19 20 -59
-6 -29 -18 -38 -21 -34 -9 8 21 5 20 -21 -3 -26 -22 -28 -37 -7 -45 8 -3 15
-1 15 3 0 5 -6 12 -12 14 -10 4 -10 6 -1 6 21 2 26 -20 9 -37 -13 -14 -16 -14
-16 -2 0 10 -9 5 -25 -12 -14 -16 -22 -33 -19 -42 3 -9 1 -16 -6 -16 -6 0 -8
5 -5 10 9 14 -7 12 -27 -3 -10 -8 -14 -18 -8 -27 6 -10 9 -9 13 6 5 17 6 17 4
-1 -2 -11 -10 -20 -18 -19 -9 1 -21 -12 -26 -27 -6 -16 -8 -27 -3 -24 4 3 13
-2 20 -10 16 -20 34 -19 26 1 -3 9 -2 12 5 9 5 -4 18 -1 27 6 9 8 7 2 -6 -13
-15 -16 -20 -28 -13 -33 17 -10 13 -25 -4 -19 -8 4 -12 10 -9 15 8 13 -10 11
-24 -3 -9 -9 -15 -9 -24 0 -7 7 -17 12 -22 12 -6 0 -4 -5 4 -10 12 -7 12 -10
1 -10 -8 0 -11 -6 -7 -17 4 -10 4 -14 0 -10 -4 4 -14 1 -22 -6 -13 -10 -14 -9
-3 11 7 13 10 26 8 29 -3 2 -11 -11 -17 -29 -7 -19 -23 -39 -37 -45 -19 -9
-22 -9 -15 0 7 8 5 17 -6 27 -14 13 -15 12 -9 -3 9 -23 -30 -23 -55 0 -10 9
-21 13 -25 9 -4 -3 3 -13 15 -22 21 -14 22 -41 1 -29 -5 4 -9 -1 -9 -10 0 -12
6 -14 27 -9 30 8 28 5 -26 -41 l-24 -20 13 25 c13 24 12 24 -5 10 -10 -8 -21
-14 -24 -12 -3 2 -7 -2 -9 -10 -2 -8 0 -9 5 -3 5 7 17 2 32 -12 l24 -23 -42 4
c-35 3 -44 -1 -62 -23 -11 -14 -17 -20 -13 -12 5 10 3 13 -8 8 -9 -3 -26 1
-37 10 -12 8 -25 12 -29 9 -10 -11 -11 -36 -1 -36 5 0 9 -4 9 -10 0 -5 -7 -10
-16 -10 -8 0 -12 5 -9 10 3 6 1 10 -4 10 -16 0 -13 -20 4 -26 8 -4 15 -11 15
-16 0 -6 -6 -6 -14 1 -10 8 -21 9 -33 4 -10 -5 -25 -9 -33 -8 -45 5 -45 6 -20
26 22 18 25 19 36 5 14 -19 26 -21 23 -3 -3 27 2 36 19 31 10 -4 13 -2 7 3
-16 13 -16 33 -1 27 8 -3 17 -1 20 5 4 6 15 2 28 -11 13 -13 23 -17 26 -10 2
6 10 8 18 5 17 -6 17 -2 2 32 -11 25 -28 34 -28 15 0 -5 5 -10 11 -10 5 0 7
-4 4 -10 -9 -14 -21 -12 -38 5 -13 13 -17 13 -28 -1 -7 -9 -15 -11 -18 -5 -4
7 -12 6 -21 0 -12 -8 -12 -12 -2 -16 10 -4 10 -8 1 -19 -12 -15 -34 -20 -25
-6 3 5 -1 9 -9 9 -8 0 -13 -5 -12 -11 1 -6 -12 -17 -28 -26 -24 -12 -31 -22
-29 -44 0 -15 7 -32 15 -37 9 -6 10 -9 2 -9 -15 0 -35 35 -26 44 3 3 1 6 -5 6
-16 0 -15 -5 4 -41 9 -19 21 -29 29 -25 9 3 12 0 8 -9 -3 -8 -10 -12 -17 -8
-17 11 -37 13 -31 3 3 -5 -9 -25 -26 -44 -25 -29 -34 -34 -49 -26 -13 7 -20 6
-24 -6 -3 -8 -2 -12 3 -9 14 8 58 -15 58 -31 0 -8 -6 -14 -14 -14 -12 0 -17
-13 -14 -32 0 -5 -4 -8 -10 -8 -5 0 -7 -4 -4 -10 3 -5 -1 -10 -11 -10 -12 0
-15 6 -11 21 3 13 1 19 -6 16 -7 -2 -11 -19 -9 -36 2 -24 -1 -30 -10 -25 -10
6 -11 4 0 -7 17 -19 15 -28 -7 -22 -10 3 -22 -1 -27 -8 -5 -9 -2 -11 9 -6 21
8 46 -21 27 -33 -13 -8 -80 17 -80 30 0 4 -7 7 -15 7 -10 0 -13 -6 -9 -19 4
-13 0 -18 -13 -19 -10 0 -6 -4 11 -10 19 -5 34 -5 42 2 8 6 13 5 17 -5 4 -9 1
-18 -5 -22 -7 -4 -8 -3 -4 4 4 7 3 12 -3 12 -5 0 -13 -5 -16 -10 -4 -6 -11 -7
-17 -4 -6 4 -8 2 -4 -4 3 -6 2 -13 -3 -16 -5 -4 -13 -2 -16 4 -5 8 -11 8 -20
0 -11 -9 -19 -8 -35 3 -16 11 -18 16 -8 20 7 4 1 5 -15 4 -32 -4 -37 -21 -6
-23 21 -1 43 -24 33 -33 -3 -3 -9 1 -13 8 -6 10 -10 10 -16 2 -5 -9 -11 -9
-22 0 -12 10 -16 10 -24 -2 -5 -8 -9 -19 -9 -26 0 -7 -9 -10 -21 -8 -16 3 -18
1 -10 -9 12 -14 5 -46 -10 -46 -5 0 -8 3 -8 8 4 22 -3 32 -22 32 -13 0 -18 -4
-13 -12 6 -10 4 -10 -7 0 -7 6 -18 12 -23 12 -6 0 -4 -5 4 -10 12 -8 9 -10
-12 -10 -16 0 -28 -4 -28 -10 0 -5 -5 -10 -11 -10 -5 0 -7 5 -4 10 3 6 1 10
-4 10 -14 0 -14 -13 1 -28 6 -6 9 -14 6 -17 -3 -3 -12 1 -21 9 -14 14 -18 12
-39 -14 -27 -35 -44 -40 -27 -7 10 18 7 17 -15 -6 -15 -16 -31 -25 -38 -21 -7
4 -8 3 -4 -4 4 -7 2 -12 -5 -12 -8 0 -8 -4 2 -16 10 -13 10 -17 -2 -26 -11 -8
-10 -9 4 -4 11 3 20 0 23 -9 4 -8 10 -13 15 -10 4 3 6 12 3 20 -4 8 -9 13 -13
10 -4 -2 -8 2 -8 10 0 8 4 12 9 9 4 -3 8 -1 8 5 0 5 -5 11 -12 13 -7 3 -6 7 5
11 11 4 17 1 17 -9 0 -14 2 -13 16 1 9 9 17 15 18 13 1 -2 8 -12 16 -23 14
-19 14 -19 -3 -6 -16 12 -20 12 -35 -2 -13 -14 -14 -19 -3 -29 11 -10 12 -10
7 0 -9 16 4 15 27 -2 11 -8 14 -17 8 -20 -5 -4 -12 -2 -16 3 -3 6 -12 8 -20 5
-8 -4 -12 -11 -8 -16 4 -7 -4 -9 -21 -6 -26 5 -35 -5 -16 -17 12 -7 4 -25 -11
-25 -6 0 -8 4 -5 8 2 4 -4 9 -15 9 -10 1 -19 -2 -19 -6 0 -14 26 -31 34 -24 4
4 4 0 0 -10 -3 -9 -10 -17 -16 -17 -5 0 -6 5 -3 10 3 6 1 10 -4 10 -6 0 -11
-4 -11 -10 0 -14 -28 -12 -32 2 -3 8 -13 3 -29 -13 -18 -20 -27 -24 -35 -15
-6 6 -9 17 -7 23 2 6 -1 15 -8 19 -8 5 -11 2 -7 -8 3 -8 -7 -29 -23 -48 -26
-29 -29 -30 -29 -12 0 14 -5 20 -13 16 -8 -3 -13 -18 -12 -35 1 -16 -3 -33 -8
-36 -6 -3 -7 -1 -3 5 4 7 2 12 -4 12 -6 0 -8 4 -5 10 3 5 0 7 -8 4 -8 -3 -18
0 -23 7 -4 7 -2 15 4 17 7 2 12 9 12 15 0 7 -11 0 -25 -15 -27 -30 -34 -48
-10 -28 12 10 16 9 21 -4 3 -9 10 -13 15 -10 5 3 9 1 9 -4 0 -11 -27 -25 -50
-27 -17 -1 -40 19 -40 34 0 6 -7 8 -16 4 -9 -3 -12 -9 -7 -12 11 -8 13 -52 2
-45 -5 3 -9 -1 -9 -10 0 -8 -5 -16 -11 -18 -7 -2 -12 -17 -13 -33 -1 -17 -5
-28 -11 -25 -13 7 -17 40 -5 40 6 0 10 5 10 11 0 5 -5 7 -12 3 -8 -5 -9 -2 -5
9 4 10 2 17 -4 17 -6 0 -9 -9 -6 -20 3 -11 1 -20 -4 -20 -5 0 -9 5 -9 11 0 5
-5 7 -12 3 -8 -5 -6 -11 5 -19 10 -7 17 -21 17 -31 0 -15 -3 -14 -13 6 -14 29
-64 41 -64 16 0 -9 7 -16 14 -16 8 0 11 -4 8 -10 -3 -5 -1 -10 4 -10 16 0 13
-26 -4 -43 -8 -8 -11 -18 -7 -22 4 -5 2 -5 -5 -1 -7 4 -10 14 -7 24 3 9 -2 4
-12 -12 -12 -22 -14 -36 -7 -55 7 -20 5 -32 -11 -55 -11 -16 -15 -27 -9 -23 6
4 13 1 16 -6 3 -8 -3 -19 -14 -25 -21 -13 -19 -69 3 -83 11 -7 10 -9 -1 -9 -9
0 -11 -6 -6 -17 4 -10 9 -27 11 -38 2 -11 6 -32 9 -47 3 -15 1 -30 -5 -33 -6
-4 -7 -11 -4 -17 4 -7 2 -8 -5 -4 -6 4 -8 13 -5 19 5 9 4 9 -5 1 -12 -11 -32
-149 -24 -170 3 -8 -1 -14 -9 -14 -9 0 -14 -16 -15 -52 -5 -172 -8 -12 -13
642 -3 404 -6 -408 -8 -1806 -2 -2223 0 -2560 13 -2695 49 -492 237 -897 579
-1247 346 -355 790 -565 1296 -612 80 -8 887 -10 2670 -8 l2555 4 114 22 c564
109 1004 387 1327 839 195 273 321 610 364 980 7 58 10 987 10 2728 0 2920 3
2751 -65 3023 -127 504 -428 931 -856 1215 -230 152 -498 263 -740 307 -219
40 -224 40 -2344 37 l-2040 -2 1970 -5z m-1511 -116 c9 -3 14 -10 11 -15 -7
-10 -35 0 -35 12 0 11 3 11 24 3z m-19 -84 c-3 -5 -10 -10 -16 -10 -5 0 -9 5
-9 10 0 6 7 10 16 10 8 0 12 -4 9 -10z m-179 -105 c-8 -8 -18 -15 -22 -15 -3
0 -1 7 6 15 7 8 17 15 22 15 5 0 3 -7 -6 -15z m14 -45 c-5 -10 -6 -21 -2 -25
4 -5 2 -5 -5 -1 -15 8 -13 43 3 43 9 0 10 -6 4 -17z m-60 -44 c0 -2 -7 -7 -16
-10 -8 -3 -12 -2 -9 4 6 10 25 14 25 6z m-41 -37 c-13 -8 -5 -13 14 -10 5 1 6
-3 2 -9 -3 -6 -10 -8 -15 -5 -11 7 -40 -5 -40 -17 0 -5 5 -6 10 -3 16 10 11
-1 -7 -16 -11 -10 -14 -10 -9 -1 4 6 3 12 -3 12 -5 0 -12 -6 -15 -12 -2 -7 -4
-4 -3 7 2 11 6 26 10 32 6 9 3 11 -10 7 -17 -5 -17 -5 0 6 14 9 22 9 35 -1 9
-8 14 -10 10 -5 -9 10 14 36 26 29 4 -3 2 -9 -5 -14z m76 -9 c3 -5 1 -10 -4
-10 -6 0 -11 5 -11 10 0 6 2 10 4 10 3 0 8 -4 11 -10z m-215 -50 c0 -5 -5 -10
-11 -10 -5 0 -7 5 -4 10 3 6 8 10 11 10 2 0 4 -4 4 -10z m-88 -127 c-9 -4 -10
-9 -2 -18 8 -9 6 -14 -5 -19 -8 -3 -15 0 -15 7 0 8 -4 6 -10 -3 -5 -8 -10 -11
-10 -6 0 14 31 46 44 45 6 0 5 -3 -2 -6z m-92 -13 c0 -5 -5 -10 -11 -10 -5 0
-7 5 -4 10 3 6 8 10 11 10 2 0 4 -4 4 -10z m-60 -26 c0 -2 -7 -4 -15 -4 -8 0
-15 4 -15 10 0 5 7 7 15 4 8 -4 15 -8 15 -10z m90 -24 c0 -5 -2 -10 -4 -10 -3
0 -8 5 -11 10 -3 6 -1 10 4 10 6 0 11 -4 11 -10z m-172 -72 c-7 -47 -39 -66
-52 -31 -4 10 -4 14 0 11 11 -12 46 12 40 28 -3 8 -1 14 5 14 5 0 8 -10 7 -22z
m-152 -213 c-8 -8 -20 -15 -26 -15 -16 0 12 29 28 30 10 0 10 -4 -2 -15z
m-142 -125 c12 -12 -21 -10 -41 3 -6 4 -14 3 -18 -2 -3 -6 4 -15 15 -21 11 -6
20 -15 20 -20 0 -6 -11 0 -25 12 -18 16 -22 25 -14 34 11 14 47 10 63 -6z m26
-35 c7 -9 8 -15 2 -15 -5 0 -12 7 -16 15 -3 8 -4 15 -2 15 2 0 9 -7 16 -15z
m-247 -49 c4 -11 1 -13 -10 -9 -12 5 -14 1 -8 -17 6 -20 5 -21 -8 -9 -14 13
-13 16 0 32 19 21 19 21 26 3z m-113 -106 c0 -5 -2 -10 -4 -10 -3 0 -8 5 -11
10 -3 6 -1 10 4 10 6 0 11 -4 11 -10z m-60 -83 c0 -2 -10 -12 -22 -23 l-23
-19 19 23 c18 21 26 27 26 19z m-27 -133 c-3 -8 -11 -13 -18 -10 -17 6 -35
-13 -28 -30 3 -8 0 -14 -6 -14 -6 0 -11 7 -11 15 0 8 -5 15 -12 15 -15 0 -2
13 17 17 8 2 23 5 33 7 9 2 16 9 14 16 -1 6 2 9 7 5 6 -3 7 -13 4 -21z m-152
-71 c13 -16 12 -17 -3 -4 -10 7 -18 15 -18 17 0 8 8 3 21 -13z m-27 -28 c-4
-8 -11 -15 -16 -15 -6 0 -5 6 2 15 7 8 14 15 16 15 2 0 1 -7 -2 -15z m-74 -65
c0 -5 -2 -10 -4 -10 -3 0 -8 5 -11 10 -3 6 -1 10 4 10 6 0 11 -4 11 -10z
m4058 -93 c597 -448 879 -662 890 -675 19 -24 17 -342 -3 -368 -8 -10 -15 -14
-15 -8 0 5 -90 73 -201 150 -111 76 -330 229 -488 340 -212 149 -291 199 -306
195 -17 -5 -16 -6 7 -9 14 -2 32 -11 40 -20 9 -10 9 -13 1 -9 -7 4 -20 0 -30
-10 -10 -10 -52 -38 -93 -63 -41 -24 -77 -48 -80 -52 -6 -8 -63 -26 -325 -102
-151 -44 -344 -102 -597 -178 -76 -23 -136 -44 -133 -46 2 -2 95 23 207 57
565 167 900 262 907 256 7 -7 7 -14 9 -134 1 -52 4 -92 6 -90 3 3 6 51 7 107
l1 102 37 -22 c59 -36 151 -98 151 -103 0 -3 -38 20 -85 50 -47 30 -87 55 -90
55 -16 0 0 -32 28 -54 17 -15 38 -31 45 -37 10 -8 10 -14 2 -24 -8 -10 -8 -19
2 -34 12 -20 27 -26 57 -22 7 2 10 -2 6 -8 -3 -6 0 -11 7 -11 7 0 31 -16 53
-35 22 -19 48 -37 58 -41 11 -3 27 -13 36 -22 10 -10 29 -27 43 -39 14 -11 30
-27 34 -35 12 -18 80 -68 93 -68 6 0 11 -3 11 -8 0 -6 72 -59 114 -84 6 -3 40
-24 76 -45 36 -21 82 -47 102 -56 20 -10 41 -23 45 -30 5 -7 10 3 14 28 3 22
7 -59 8 -181 0 -121 3 -223 6 -226 3 -2 104 17 225 45 l221 49 177 -118 c97
-65 328 -217 512 -337 184 -120 341 -223 348 -229 13 -12 18 -304 4 -324 -8
-13 13 -24 -622 360 l-415 252 -485 -96 -485 -96 -5 -950 c-3 -620 -6 -809 -9
-544 -2 223 -4 530 -5 683 -2 152 -6 280 -9 284 -4 3 -7 -45 -7 -108 -1 -84
-4 -119 -15 -133 -13 -17 -13 -23 1 -44 9 -13 13 -26 10 -30 -3 -3 -6 1 -6 8
0 7 -2 11 -5 8 -3 -3 -1 -17 4 -32 7 -16 7 -26 1 -26 -6 0 -6 -9 -1 -22 12
-34 13 -145 2 -167 -8 -14 -8 -21 2 -24 7 -4 6 -6 -4 -6 -11 -1 -21 -17 -29
-46 -7 -25 -16 -45 -20 -45 -10 0 -7 -33 3 -41 5 -3 3 -12 -5 -20 -7 -8 -13
-27 -13 -44 0 -16 -2 -34 -5 -40 -2 -5 -5 -38 -6 -72 0 -53 2 -64 18 -69 22
-7 24 -24 2 -24 -9 0 -12 5 -8 12 4 7 3 8 -4 4 -6 -4 -9 -13 -6 -20 3 -8 1
-17 -5 -20 -6 -4 -7 -14 -4 -23 5 -13 2 -15 -11 -10 -11 4 -15 3 -10 -4 4 -6
0 -16 -7 -21 -11 -8 -10 -9 3 -4 10 3 20 1 23 -4 3 -5 -2 -10 -12 -12 -12 -2
-17 -15 -18 -50 -2 -27 -8 -54 -14 -62 -9 -11 -9 -15 1 -19 10 -5 9 -8 -3 -16
-13 -8 -15 -21 -12 -54 4 -32 1 -48 -12 -60 -9 -9 -13 -21 -10 -27 3 -5 1 -10
-5 -10 -7 0 -9 -7 -6 -16 4 -9 -1 -28 -10 -42 -9 -13 -11 -21 -5 -18 6 4 11 2
11 -3 0 -6 -5 -11 -11 -11 -5 0 -7 -4 -4 -10 3 -5 1 -10 -6 -10 -14 0 -46 -36
-54 -61 -4 -11 -10 -19 -15 -19 -6 0 -11 -97 -13 -222 -1 -123 -3 85 -5 461
-1 376 -4 682 -6 680 -2 -2 -7 -577 -11 -1276 l-7 -1273 459 0 c616 0 1835
-10 1851 -15 8 -3 12 -34 12 -108 0 -88 -3 -107 -17 -118 -16 -13 -17 -12 -5
3 9 11 12 45 10 115 l-3 98 -1040 0 -1040 0 -3 -113 -3 -112 -2252 2 -2252 3
0 120 0 120 193 3 192 2 1 113 c1 97 2 106 11 67 5 -25 7 -75 6 -112 l-4 -68
628 0 628 0 0 1794 0 1794 -57 -13 c-32 -7 -173 -38 -313 -69 -645 -140 -1112
-248 -1106 -254 3 -2 28 1 57 7 28 6 54 9 56 7 3 -2 -4 -13 -15 -24 -20 -20
-19 -20 29 -43 74 -34 52 -34 -37 1 -98 39 -127 52 -136 65 -4 5 -8 74 -8 152
0 137 1 143 22 157 13 7 104 33 203 56 99 23 407 95 685 160 278 65 531 123
563 130 l57 11 0 232 0 232 -149 78 c-82 42 -152 84 -155 93 -3 9 -6 93 -6
188 0 139 3 176 16 194 8 12 21 22 27 22 7 0 66 18 132 39 161 53 746 239 975
312 601 188 941 294 1315 409 231 71 449 138 485 149 36 11 75 20 88 20 13 1
63 -29 120 -72z m-4318 -9 c0 -4 -4 -8 -9 -8 -6 0 -12 4 -15 8 -3 5 1 9 9 9 8
0 15 -4 15 -9z m-80 -123 c-13 -14 -28 -25 -33 -25 -6 0 3 11 19 25 37 32 44
32 14 0z m-64 -157 c4 -7 3 -8 -4 -4 -7 4 -12 2 -12 -3 0 -6 6 -11 13 -12 9 0
9 -2 -1 -6 -6 -2 -10 -9 -6 -14 3 -5 0 -9 -6 -9 -7 0 -10 7 -7 15 4 8 2 17 -4
20 -10 7 -3 25 11 25 5 0 12 -5 16 -12z m-121 -58 c3 -5 1 -10 -4 -10 -6 0
-11 5 -11 10 0 6 2 10 4 10 3 0 8 -4 11 -10z m89 -35 c-7 -16 -24 -21 -24 -6
0 8 7 13 27 20 1 1 0 -6 -3 -14z m-209 -83 c-3 -3 -11 0 -18 7 -9 10 -8 11 6
5 10 -3 15 -9 12 -12z m-250 -82 c3 -5 1 -10 -4 -10 -6 0 -11 5 -11 10 0 6 2
10 4 10 3 0 8 -4 11 -10z m-54 -150 c-12 -7 -12 -11 -2 -24 7 -9 17 -13 22
-10 5 3 6 -2 3 -10 -3 -9 -10 -16 -16 -16 -5 0 -6 5 -3 10 3 6 2 10 -4 10 -16
0 -25 -22 -11 -30 9 -5 8 -9 -2 -13 -18 -6 -20 22 -4 42 9 12 8 13 -6 8 -19
-7 -25 8 -8 18 6 4 8 10 6 14 -3 4 5 8 17 8 16 2 18 0 8 -7z m69 -11 c0 -5 -4
-9 -10 -9 -5 0 -10 5 -10 11 0 8 -6 7 -17 -2 -16 -13 -17 -12 -5 3 13 17 42
14 42 -3z m-192 -104 c-3 -3 -9 2 -12 12 -6 14 -5 15 5 6 7 -7 10 -15 7 -18z
m-33 -3 c-3 -3 -11 0 -18 7 -9 10 -8 11 6 5 10 -3 15 -9 12 -12z m-215 -115
c0 -7 -4 -6 -10 3 -8 12 -10 12 -10 1 0 -8 -3 -12 -6 -8 -9 9 6 28 17 22 5 -4
9 -12 9 -18z m46 11 c4 -7 4 -10 -1 -6 -4 4 -13 3 -20 -2 -8 -7 -12 -5 -12 5
0 18 23 20 33 3z m-141 -97 c3 -5 2 -12 -3 -15 -5 -3 -9 1 -9 9 0 17 3 19 12
6z m-198 -973 c-2 -18 -4 -4 -4 32 0 36 2 50 4 33 2 -18 2 -48 0 -65z m6722
-1771 c-1 -914 -4 -1687 -9 -1717 -4 -32 -8 143 -10 410 -3 546 -15 1094 -20
965 -2 -62 -5 -75 -7 -42 -2 26 -9 47 -14 47 -6 0 -7 5 -4 10 4 6 0 21 -8 34
-12 17 -13 26 -4 35 8 8 8 11 -2 11 -10 0 -11 3 -2 14 9 11 8 15 -4 20 -9 3
-13 2 -10 -3 3 -5 1 -12 -5 -16 -5 -3 -10 1 -10 9 0 8 5 18 10 21 6 3 10 10
10 14 0 15 -39 53 -48 47 -5 -3 -14 6 -21 20 -6 14 -15 23 -20 20 -5 -4 -8 5
-7 18 2 17 -1 23 -10 19 -13 -5 -19 9 -15 31 1 5 -6 3 -15 -5 -12 -9 -15 -9
-10 -1 4 7 2 12 -4 12 -6 0 -9 4 -6 9 7 11 -22 23 -35 15 -5 -3 -10 45 -11
113 -2 65 -5 -152 -8 -482 -4 -424 -5 -231 -6 655 0 690 2 1230 6 1200 4 -30
7 -45 8 -33 2 17 11 23 42 28 22 4 41 5 42 4 4 -5 68 34 68 41 0 3 17 7 38 7
74 2 80 8 81 91 1 33 5 51 11 47 7 -4 10 -570 9 -1668z m48 625 c-1 -103 -2
-16 -2 193 0 209 1 293 2 187 2 -106 2 -277 0 -380z m-5197 425 c0 -22 3 -28
9 -18 7 11 16 10 53 -8 47 -22 78 -27 78 -12 0 6 12 6 30 1 18 -5 30 -5 30 1
0 5 18 9 39 9 29 0 41 -5 44 -17 4 -14 5 -13 6 4 1 26 37 54 66 52 20 -1 20
-1 0 -6 -45 -11 -45 -10 -45 -339 l0 -314 23 5 c12 3 143 27 291 54 l270 48
70 -26 c49 -18 64 -27 49 -29 -19 -3 -21 -7 -13 -27 6 -14 4 -42 -5 -76 -7
-30 -16 -83 -19 -119 -3 -36 -8 -76 -11 -90 -4 -14 -6 -48 -6 -77 1 -33 -4
-57 -14 -67 -8 -8 -15 -20 -15 -27 0 -7 -3 -10 -6 -6 -4 3 -10 73 -14 154 l-7
148 -1 -177 c-2 -159 -4 -177 -19 -182 -10 -3 -166 -28 -348 -56 -430 -66
-684 -107 -741 -120 -76 -17 -74 -25 -74 280 0 203 3 270 13 278 7 6 65 20
130 32 l117 22 0 375 c0 247 3 372 10 368 6 -3 10 -21 10 -38z m457 27 c-3 -3
-12 -4 -19 -1 -8 3 -5 6 6 6 11 1 17 -2 13 -5z m-40 -10 c-3 -3 -12 -4 -19 -1
-8 3 -5 6 6 6 11 1 17 -2 13 -5z m590 -226 c-2 -24 -4 -7 -4 37 0 44 2 63 4
43 2 -21 2 -57 0 -80z m4298 -458 c3 -6 -1 -7 -9 -4 -18 7 -21 14 -7 14 6 0
13 -4 16 -10z m205 -95 c14 -8 21 -14 15 -14 -5 0 -21 6 -35 14 -14 8 -20 14
-15 14 6 0 21 -6 35 -14z m-313 -57 c-2 -13 -4 -3 -4 22 0 25 2 35 4 23 2 -13
2 -33 0 -45z m181 7 c45 -21 81 -40 78 -42 -2 -2 -46 16 -97 42 -110 53 -100
53 19 0z m258 -11 c18 -14 18 -14 -6 -3 -31 14 -36 19 -24 19 6 0 19 -7 30
-16z m-439 -621 c-1 -109 -2 -20 -2 197 0 217 1 306 2 198 2 -109 2 -287 0
-395z m323 567 c8 -5 11 -10 5 -10 -5 0 -17 5 -25 10 -8 5 -10 10 -5 10 6 0
17 -5 25 -10z m290 -25 c14 -8 21 -14 15 -14 -5 0 -21 6 -35 14 -14 8 -20 14
-15 14 6 0 21 -6 35 -14z m-180 -25 c19 -11 31 -19 25 -19 -5 0 -26 8 -45 19
-19 11 -30 19 -25 19 6 0 26 -8 45 -19z m135 -60 c33 -16 56 -29 50 -29 -5 0
-37 13 -70 29 -33 15 -55 28 -50 28 6 0 37 -12 70 -28z m169 -74 c42 -19 76
-37 76 -40 0 -5 -151 61 -159 70 -11 10 13 1 83 -30z m-4974 -81 l25 -15 -30
6 c-33 7 -58 24 -34 24 7 -1 25 -7 39 -15z m-1120 -195 c13 -9 13 -10 0 -9 -8
1 -26 5 -40 9 l-25 8 25 1 c14 0 32 -4 40 -9z m161 -175 c1 -33 4 -47 6 -32 4
28 5 28 29 12 18 -12 40 -15 79 -12 30 2 57 1 62 -3 4 -5 32 -15 61 -24 48
-14 52 -14 52 2 0 9 5 24 10 32 6 10 10 -92 10 -297 0 -202 -4 -313 -10 -313
-5 0 -10 26 -10 58 0 34 -4 52 -9 44 -4 -7 -12 -12 -17 -11 -18 3 -53 -13 -58
-28 -3 -8 -11 -11 -17 -8 -6 4 -17 -2 -25 -14 -8 -12 -24 -21 -35 -21 -11 0
-18 -4 -15 -8 10 -17 -12 -32 -64 -41 -54 -10 -53 -10 20 -5 41 2 113 9 160
14 47 5 148 16 225 24 77 8 208 23 291 32 111 12 159 14 180 6 l29 -10 -27 -1
-28 -1 0 -280 c0 -216 -3 -282 -12 -285 -7 -2 -269 -27 -582 -56 -471 -42
-570 -49 -577 -37 -5 7 -9 128 -9 269 0 299 -6 283 110 293 41 4 92 9 113 13
l37 6 1 391 c0 227 4 383 9 371 5 -11 10 -47 11 -80z m5639 -575 c8 -5 11 -10
5 -10 -5 0 -17 5 -25 10 -8 5 -10 10 -5 10 6 0 17 -5 25 -10z m-1513 -1217
c-2 -21 -4 -6 -4 32 0 39 2 55 4 38 2 -18 2 -50 0 -70z m1439 -55 c4 -5 -322
-8 -725 -8 -403 0 -730 3 -728 8 3 4 329 7 725 7 396 0 724 -3 728 -7z"/>
<path d="M7298 8793 c7 -3 16 -2 19 1 4 3 -2 6 -13 5 -11 0 -14 -3 -6 -6z"/>
<path d="M7228 8773 c7 -3 16 -2 19 1 4 3 -2 6 -13 5 -11 0 -14 -3 -6 -6z"/>
<path d="M7058 8723 c7 -3 16 -2 19 1 4 3 -2 6 -13 5 -11 0 -14 -3 -6 -6z"/>
<path d="M6055 8305 c-38 -13 -65 -23 -60 -24 6 0 44 10 85 23 41 13 68 24 60
24 -8 0 -46 -10 -85 -23z"/>
<path d="M5870 8250 c-47 -15 -80 -28 -75 -29 6 0 51 12 100 28 50 16 83 29
75 29 -8 0 -53 -12 -100 -28z"/>
<path d="M5728 8203 c7 -3 16 -2 19 1 4 3 -2 6 -13 5 -11 0 -14 -3 -6 -6z"/>
<path d="M5628 8173 c7 -3 16 -2 19 1 4 3 -2 6 -13 5 -11 0 -14 -3 -6 -6z"/>
<path d="M5558 8153 c7 -3 16 -2 19 1 4 3 -2 6 -13 5 -11 0 -14 -3 -6 -6z"/>
<path d="M5458 8123 c7 -3 16 -2 19 1 4 3 -2 6 -13 5 -11 0 -14 -3 -6 -6z"/>
<path d="M5358 8093 c7 -3 16 -2 19 1 4 3 -2 6 -13 5 -11 0 -14 -3 -6 -6z"/>
<path d="M5288 8073 c7 -3 16 -2 19 1 4 3 -2 6 -13 5 -11 0 -14 -3 -6 -6z"/>
<path d="M6570 7679 c-41 -10 -151 -37 -244 -58 -93 -22 -173 -46 -177 -53 -5
-7 -8 -47 -7 -88 1 -62 2 -66 5 -22 2 28 7 52 11 52 18 0 50 -79 48 -114 -2
-20 0 -51 4 -69 l8 -32 2 30 c1 17 3 49 5 73 1 23 5 45 9 49 3 3 6 -128 5
-293 0 -176 -4 -291 -9 -279 -5 11 -10 38 -11 60 -1 28 -5 15 -13 -45 -9 -67
-15 -85 -28 -88 -23 -4 -28 18 -31 168 -2 69 -3 33 -2 -80 0 -199 1 -205 20
-204 45 2 130 17 325 57 l205 42 0 455 0 455 -25 2 c-14 0 -59 -7 -100 -18z
m-333 -936 c-2 -16 -4 -5 -4 22 0 28 2 40 4 28 2 -13 2 -35 0 -50z"/>
<path d="M5402 7396 c-164 -40 -256 -67 -261 -76 -3 -8 -4 -64 -1 -125 l6
-110 3 85 c1 56 5 78 11 65 4 -12 15 -27 24 -34 14 -12 16 -48 16 -287 0 -250
-2 -276 -19 -307 -10 -19 -21 -43 -24 -53 -2 -10 -6 46 -8 126 l-3 145 -6
-160 c-3 -100 -1 -164 5 -171 11 -13 60 -5 380 59 l160 32 0 435 c0 379 -2
435 -15 436 -8 1 -129 -26 -268 -60z m-174 -496 c0 -91 -4 -210 -8 -265 -4
-67 -7 9 -7 230 0 191 3 303 7 265 4 -36 8 -139 8 -230z"/>
<path d="M7631 7174 c0 -11 3 -14 6 -6 3 7 2 16 -1 19 -3 4 -6 -2 -5 -13z"/>
<path d="M7604 6740 c0 -91 2 -128 3 -82 2 45 2 119 0 165 -1 45 -3 8 -3 -83z"/>
<path d="M5142 6860 c0 -14 2 -19 5 -12 2 6 2 18 0 25 -3 6 -5 1 -5 -13z"/>
<path d="M6395 6218 c-126 -22 -236 -45 -243 -50 -9 -8 -12 -105 -10 -442 l3
-431 50 3 c79 4 489 63 498 71 4 4 6 205 5 447 l-3 439 -35 2 c-19 1 -138 -17
-265 -39z"/>
<path d="M5386 6045 c-131 -23 -242 -48 -246 -54 -3 -7 -7 -193 -8 -415 -1
-309 1 -406 11 -414 8 -7 90 1 257 24 135 19 255 37 268 39 l22 5 -2 428 -3
427 -30 2 c-16 1 -137 -18 -269 -42z m-229 -457 c-1 -40 -3 -10 -3 67 0 77 1
110 3 73 2 -37 2 -100 0 -140z"/>
<path d="M6585 4834 c-49 -7 -164 -20 -255 -30 -91 -10 -171 -22 -177 -27 -10
-7 -13 -108 -13 -444 0 -381 2 -434 15 -440 16 -6 428 23 500 36 l40 7 3 451
c2 355 0 452 -10 455 -7 3 -53 -1 -103 -8z"/>
<path d="M5560 4719 c-36 -5 -141 -18 -235 -30 -93 -11 -176 -25 -182 -31 -19
-16 -19 -821 0 -837 10 -8 81 -5 268 10 140 11 260 22 267 24 10 4 12 96 10
437 l-3 433 -30 1 c-16 1 -59 -2 -95 -7z"/>
<path d="M8251 5744 c0 -11 3 -14 6 -6 3 7 2 16 -1 19 -3 4 -6 -2 -5 -13z"/>
<path d="M4303 5825 c0 -38 2 -53 4 -32 2 20 2 52 0 70 -2 17 -4 1 -4 -38z"/>
<path d="M3681 5859 c-1 -13 -23 -21 -97 -34 -52 -9 -93 -19 -90 -22 4 -4 198
25 202 30 1 1 -2 11 -7 22 -6 15 -8 16 -8 4z"/>
<path d="M3448 5793 c6 -2 18 -2 25 0 6 3 1 5 -13 5 -14 0 -19 -2 -12 -5z"/>
<path d="M3403 4450 c0 -25 2 -35 4 -22 2 12 2 32 0 45 -2 12 -4 2 -4 -23z"/>
<path d="M6623 10923 c15 -2 37 -2 50 0 12 2 0 4 -28 4 -27 0 -38 -2 -22 -4z"/>
<path d="M4840 10730 c-8 -5 -12 -12 -9 -15 4 -3 12 1 19 10 14 17 11 19 -10
5z"/>
<path d="M4934 10718 c-5 -7 -3 -8 6 -3 10 6 12 4 6 -10 -5 -15 -4 -16 9 -5 8
7 12 16 9 21 -7 12 -21 11 -30 -3z"/>
<path d="M4810 10646 c0 -2 7 -6 15 -10 8 -3 15 -1 15 4 0 6 -7 10 -15 10 -8
0 -15 -2 -15 -4z"/>
<path d="M4753 10585 c0 -8 4 -12 9 -9 4 3 8 9 8 15 0 5 -4 9 -8 9 -5 0 -9 -7
-9 -15z"/>
<path d="M4723 10523 c-22 -8 -14 -21 9 -15 16 4 20 1 16 -9 -3 -8 -2 -23 2
-33 6 -17 7 -18 13 -3 3 9 2 17 -3 17 -5 0 -7 6 -4 13 6 17 -16 36 -33 30z"/>
<path d="M4621 10407 c-8 -10 -7 -14 2 -14 8 0 14 6 14 14 0 7 -1 13 -2 13 -2
0 -8 -6 -14 -13z"/>
<path d="M4643 10364 c0 -16 13 -19 21 -5 3 5 0 11 -7 14 -8 3 -14 -1 -14 -9z"/>
<path d="M4495 10250 c3 -5 8 -10 11 -10 2 0 4 5 4 10 0 6 -5 10 -11 10 -5 0
-7 -4 -4 -10z"/>
<path d="M4350 10219 c0 -5 5 -7 10 -4 6 3 10 8 10 11 0 2 -4 4 -10 4 -5 0
-10 -5 -10 -11z"/>
<path d="M4245 10160 c-3 -5 -1 -10 4 -10 6 0 11 5 11 10 0 6 -2 10 -4 10 -3
0 -8 -4 -11 -10z"/>
<path d="M4101 9981 c-7 -5 -12 -14 -9 -21 2 -7 10 -4 22 9 19 21 12 28 -13
12z"/>
<path d="M3950 9865 c0 -8 -4 -15 -10 -15 -5 0 -10 -4 -10 -8 0 -20 26 -6 28
15 1 13 0 23 -3 23 -3 0 -5 -7 -5 -15z"/>
<path d="M3799 9856 c9 -11 9 -15 -1 -19 -7 -3 -2 -6 11 -6 23 -1 24 0 6 19
-20 23 -34 28 -16 6z"/>
<path d="M3725 9721 c-3 -5 -1 -12 5 -16 5 -3 10 1 10 9 0 18 -6 21 -15 7z"/>
<path d="M3352 9348 c6 -18 25 -21 25 -3 0 8 -7 15 -14 15 -8 0 -13 -5 -11
-12z"/>
<path d="M3120 9250 c0 -5 5 -10 10 -10 6 0 10 5 10 10 0 6 -4 10 -10 10 -5 0
-10 -4 -10 -10z"/>
<path d="M3185 9220 c-3 -5 -1 -10 4 -10 6 0 11 5 11 10 0 6 -2 10 -4 10 -3 0
-8 -4 -11 -10z"/>
<path d="M1841 9184 c0 -11 3 -14 6 -6 3 7 2 16 -1 19 -3 4 -6 -2 -5 -13z"/>
<path d="M1832 9105 c0 -16 2 -22 5 -12 2 9 2 23 0 30 -3 6 -5 -1 -5 -18z"/>
<path d="M3050 9121 c0 -6 4 -13 10 -16 6 -3 7 1 4 9 -7 18 -14 21 -14 7z"/>
<path d="M1823 9005 c0 -22 2 -30 4 -17 2 12 2 30 0 40 -3 9 -5 -1 -4 -23z"/>
<path d="M2920 9000 c0 -5 5 -10 11 -10 5 0 7 5 4 10 -3 6 -8 10 -11 10 -2 0
-4 -4 -4 -10z"/>
<path d="M2885 8950 c-3 -5 1 -10 10 -10 9 0 13 5 10 10 -3 6 -8 10 -10 10 -2
0 -7 -4 -10 -10z"/>
<path d="M2845 8890 c-3 -6 1 -7 9 -4 18 7 21 14 7 14 -6 0 -13 -4 -16 -10z"/>
<path d="M2900 8889 c0 -5 5 -7 10 -4 6 3 10 8 10 11 0 2 -4 4 -10 4 -5 0 -10
-5 -10 -11z"/>
<path d="M2772 8845 c-9 -19 -8 -23 3 -19 17 7 27 31 16 38 -4 3 -13 -6 -19
-19z"/>
<path d="M2832 8854 c10 -10 20 -16 22 -13 3 3 -5 11 -17 18 -21 13 -21 12 -5
-5z"/>
<path d="M2682 8813 c2 -16 9 -28 18 -29 36 -2 41 -5 34 -16 -6 -10 -3 -9 8 0
23 19 12 41 -20 39 -20 -2 -27 2 -26 16 1 9 -3 17 -8 17 -5 0 -8 -12 -6 -27z"/>
<path d="M2680 8750 c0 -5 5 -10 11 -10 5 0 7 5 4 10 -3 6 -8 10 -11 10 -2 0
-4 -4 -4 -10z"/>
<path d="M2444 8708 c-12 -13 -13 -18 -4 -12 8 4 23 7 33 6 9 -2 17 1 17 7 0
6 -7 7 -17 4 -11 -4 -14 -3 -9 5 12 19 1 14 -20 -10z"/>
<path d="M2553 8715 c0 -8 4 -15 9 -15 4 0 8 7 8 15 0 8 -4 15 -8 15 -5 0 -9
-7 -9 -15z"/>
<path d="M2373 8563 c-17 -6 -17 -20 0 -20 8 0 14 6 14 14 0 7 -1 13 -1 12 -1
0 -7 -3 -13 -6z"/>
<path d="M2400 8560 c0 -5 7 -7 15 -4 8 4 15 8 15 10 0 2 -7 4 -15 4 -8 0 -15
-4 -15 -10z"/>
<path d="M2315 8461 c-3 -5 0 -13 6 -17 8 -5 9 -3 4 6 -6 10 -4 12 8 7 10 -3
17 -2 17 3 0 13 -27 13 -35 1z"/>
<path d="M2065 8380 c-3 -6 1 -7 9 -4 18 7 21 14 7 14 -6 0 -13 -4 -16 -10z"/>
<path d="M2019 8357 c-9 -7 -21 -21 -27 -33 -10 -19 -8 -20 29 -21 39 -1 58
10 39 22 -5 3 -10 15 -10 26 0 22 -8 24 -31 6z m31 -32 c9 -10 9 -15 1 -15 -6
0 -11 6 -12 13 0 10 -2 10 -6 0 -2 -7 -9 -13 -14 -13 -4 0 -6 7 -3 15 4 8 10
15 14 15 4 0 13 -7 20 -15z"/>
<path d="M2141 8334 c0 -11 3 -14 6 -6 3 7 2 16 -1 19 -3 4 -6 -2 -5 -13z"/>
<path d="M1916 8195 c4 -8 8 -15 10 -15 2 0 4 7 4 15 0 8 -4 15 -10 15 -5 0
-7 -7 -4 -15z"/>
</g>
</svg>
